<?xml version="1.0" encoding="UTF-8" standalone="no"?>
<!-- Created with Inkscape (http://www.inkscape.org/) -->

<svg
   xmlns:osb="http://www.openswatchbook.org/uri/2009/osb"
   xmlns:dc="http://purl.org/dc/elements/1.1/"
   xmlns:cc="http://creativecommons.org/ns#"
   xmlns:rdf="http://www.w3.org/1999/02/22-rdf-syntax-ns#"
   xmlns:svg="http://www.w3.org/2000/svg"
   xmlns="http://www.w3.org/2000/svg"
   xmlns:xlink="http://www.w3.org/1999/xlink"
   xmlns:sodipodi="http://sodipodi.sourceforge.net/DTD/sodipodi-0.dtd"
   xmlns:inkscape="http://www.inkscape.org/namespaces/inkscape"
   width="344.41998"
   height="643.63147"
   id="svg2"
   version="1.1"
   inkscape:version="0.48.4 r9939"
   sodipodi:docname="Portrait.svg">
  <defs
     id="defs4">
    <linearGradient
       id="linearGradient4302"
       osb:paint="solid">
      <stop
         style="stop-color:#000000;stop-opacity:1;"
         offset="0"
         id="stop4304" />
    </linearGradient>
    <linearGradient
       inkscape:collect="always"
       id="linearGradient3471">
      <stop
         style="stop-color:#c87137;stop-opacity:1;"
         offset="0"
         id="stop3473" />
      <stop
         style="stop-color:#c87137;stop-opacity:0;"
         offset="1"
         id="stop3475" />
    </linearGradient>
    <linearGradient
       inkscape:collect="always"
       id="linearGradient3380">
      <stop
         style="stop-color:#000000;stop-opacity:1;"
         offset="0"
         id="stop3382" />
      <stop
         style="stop-color:#000000;stop-opacity:0;"
         offset="1"
         id="stop3384" />
    </linearGradient>
    <linearGradient
       inkscape:collect="always"
       id="linearGradient3372">
      <stop
         style="stop-color:#f4e3d7;stop-opacity:1;"
         offset="0"
         id="stop3374" />
      <stop
         style="stop-color:#f4e3d7;stop-opacity:0;"
         offset="1"
         id="stop3376" />
    </linearGradient>
    <linearGradient
       inkscape:collect="always"
       xlink:href="#linearGradient3372"
       id="linearGradient3378"
       x1="285.2063"
       y1="113.33382"
       x2="297.68213"
       y2="316.34702"
       gradientUnits="userSpaceOnUse" />
    <linearGradient
       inkscape:collect="always"
       xlink:href="#linearGradient3380"
       id="linearGradient3386"
       x1="289.45312"
       y1="229.76537"
       x2="283.90228"
       y2="84.798065"
       gradientUnits="userSpaceOnUse" />
    <linearGradient
       inkscape:collect="always"
       xlink:href="#linearGradient3380"
       id="linearGradient3390"
       gradientUnits="userSpaceOnUse"
       x1="289.45312"
       y1="229.76537"
       x2="283.90228"
       y2="84.798065" />
    <linearGradient
       inkscape:collect="always"
       xlink:href="#linearGradient3380"
       id="linearGradient3402"
       gradientUnits="userSpaceOnUse"
       x1="289.45312"
       y1="229.76537"
       x2="283.90228"
       y2="84.798065" />
    <linearGradient
       inkscape:collect="always"
       xlink:href="#linearGradient3372"
       id="linearGradient3404"
       gradientUnits="userSpaceOnUse"
       x1="285.2063"
       y1="113.33382"
       x2="297.68213"
       y2="316.34702" />
    <linearGradient
       inkscape:collect="always"
       xlink:href="#linearGradient3380"
       id="linearGradient3406"
       gradientUnits="userSpaceOnUse"
       x1="289.45312"
       y1="229.76537"
       x2="283.90228"
       y2="84.798065" />
    <linearGradient
       inkscape:collect="always"
       xlink:href="#linearGradient3471"
       id="linearGradient3477"
       x1="366.1803"
       y1="323.03204"
       x2="366.1803"
       y2="180.09546"
       gradientUnits="userSpaceOnUse" />
    <linearGradient
       inkscape:collect="always"
       xlink:href="#linearGradient3471"
       id="linearGradient3479"
       x1="364.66507"
       y1="324.04221"
       x2="368.20059"
       y2="184.64114"
       gradientUnits="userSpaceOnUse" />
    <linearGradient
       inkscape:collect="always"
       xlink:href="#linearGradient3471"
       id="linearGradient3481"
       x1="366.68536"
       y1="336.6691"
       x2="366.1803"
       y2="241.71477"
       gradientUnits="userSpaceOnUse" />
  </defs>
  <sodipodi:namedview
     id="base"
     pagecolor="#ffffff"
     bordercolor="#666666"
     borderopacity="1.0"
     inkscape:pageopacity="0.0"
     inkscape:pageshadow="2"
     inkscape:zoom="0.35"
     inkscape:cx="110.02468"
     inkscape:cy="319.65457"
     inkscape:document-units="px"
     inkscape:current-layer="layer1"
     showgrid="false"
     inkscape:window-width="1366"
     inkscape:window-height="744"
     inkscape:window-x="0"
     inkscape:window-y="24"
     inkscape:window-maximized="1"
     fit-margin-top="0"
     fit-margin-left="0"
     fit-margin-right="0"
     fit-margin-bottom="-0.1" />
  <metadata
     id="metadata7">
    <rdf:RDF>
      <cc:Work
         rdf:about="">
        <dc:format>image/svg+xml</dc:format>
        <dc:type
           rdf:resource="http://purl.org/dc/dcmitype/StillImage" />
        <dc:title></dc:title>
      </cc:Work>
    </rdf:RDF>
  </metadata>
  <g
     inkscape:label="Layer 1"
     inkscape:groupmode="layer"
     id="layer1"
     transform="translate(-205.83182,-45.257055)">
    <path
       style="fill:#ff9955;fill-opacity:1"
       d="m 225.71429,87.497961 c 83.80952,-24.793316 207.61904,-26.968104 311.42856,0 22.33408,181.621409 -44.28571,371.874339 0,544.864239 L 220,631.28327 C 317.10393,255.30045 195.37336,189.33741 225.71429,87.497961 z"
       id="rect3348"
       inkscape:connector-curvature="0"
       sodipodi:nodetypes="ccccc" />
    <path
       transform="matrix(1,0,0,1.4999958,-2.8571429,-19.037994)"
       style="fill:#803300;fill-opacity:1"
       d="m 386.86775,44.13362 c 85.9341,0.458365 154.91762,15.804137 151.58684,27.629931 C 535.12381,83.589345 462.76033,92.804467 376.82624,92.346103 290.89214,91.887738 223.92892,81.929461 227.2597,70.103667 230.53828,58.463218 300.79095,43.927977 385.43016,44.120468"
       id="path3351"
       inkscape:connector-curvature="0"
       sodipodi:nodetypes="csssc" />
    <path
       sodipodi:type="arc"
       style="fill:#ffe6d5;fill-opacity:1"
       id="path3353"
       sodipodi:cx="292.85715"
       sodipodi:cy="203.79076"
       sodipodi:rx="30"
       sodipodi:ry="32.857143"
       d="m 294.01907,170.95827 c 16.55611,0.70282 29.45728,15.97218 28.81557,34.10506 -0.64171,18.13289 -14.5833,32.26274 -31.13941,31.55992 -16.55611,-0.70283 -29.45728,-15.97219 -28.81557,-34.10507 0.63165,-17.84869 14.16657,-31.87523 30.47321,-31.58008"
       sodipodi:start="4.7511293"
       sodipodi:end="11.012099"
       sodipodi:open="true"
       transform="matrix(1,0,0,0.91304422,21.428571,20.577944)" />
    <path
       style="fill:#803300;fill-opacity:1"
       d="m 308.1841,147.19506 c 18.07808,0.12386 33.92013,7.15811 33.21942,10.3539 -0.7007,3.1958 -14.16903,-1.06989 -32.24712,-1.19376 -18.0781,-0.12387 -36.25999,-1.36728 -35.55928,-4.56307 0.68972,-3.1457 14.29896,-6.58293 31.51969,-4.11806"
       id="path3357"
       inkscape:connector-curvature="0"
       sodipodi:nodetypes="csssc" />
    <path
       sodipodi:nodetypes="csssc"
       inkscape:connector-curvature="0"
       id="path3360"
       d="m 418.24788,145.76648 c -18.07808,0.12386 -33.92013,7.15811 -33.21942,10.3539 0.7007,3.1958 14.16903,-1.06989 32.24712,-1.19376 18.0781,-0.12387 36.25999,-1.36728 35.55928,-4.56307 -0.68972,-3.1457 -14.29896,-6.58293 -31.51969,-4.11806"
       style="fill:#803300;fill-opacity:1" />
    <path
       transform="matrix(0.58333928,0,0,0.52888285,143.09349,99.014489)"
       sodipodi:open="true"
       sodipodi:end="11.012099"
       sodipodi:start="4.7511293"
       d="m 294.01907,170.95827 c 16.55611,0.70282 29.45728,15.97218 28.81557,34.10506 -0.64171,18.13289 -14.5833,32.26274 -31.13941,31.55992 -16.55611,-0.70283 -29.45728,-15.97219 -28.81557,-34.10507 0.63165,-17.84869 14.16657,-31.87523 30.47321,-31.58008"
       sodipodi:ry="32.857143"
       sodipodi:rx="30"
       sodipodi:cy="203.79076"
       sodipodi:cx="292.85715"
       id="path3362"
       style="fill:#552200;fill-opacity:1"
       sodipodi:type="arc" />
    <path
       sodipodi:type="arc"
       style="fill:url(#linearGradient3386);fill-opacity:1"
       id="path3366"
       sodipodi:cx="292.85715"
       sodipodi:cy="203.79076"
       sodipodi:rx="30"
       sodipodi:ry="32.857143"
       d="m 294.01907,170.95827 c 16.55611,0.70282 29.45728,15.97218 28.81557,34.10506 -0.64171,18.13289 -14.5833,32.26274 -31.13941,31.55992 -16.55611,-0.70283 -29.45728,-15.97219 -28.81557,-34.10507 0.63165,-17.84869 14.16657,-31.87523 30.47321,-31.58008"
       sodipodi:start="4.7511293"
       sodipodi:end="11.012099"
       sodipodi:open="true"
       transform="matrix(0.27297386,0,0,0.24736899,233.62908,156.08859)" />
    <path
       transform="matrix(0.12145314,0,0,0.12439494,268.91164,173.57345)"
       sodipodi:open="true"
       sodipodi:end="11.012099"
       sodipodi:start="4.7511293"
       d="m 294.01907,170.95827 c 16.55611,0.70282 29.45728,15.97218 28.81557,34.10506 -0.64171,18.13289 -14.5833,32.26274 -31.13941,31.55992 -16.55611,-0.70283 -29.45728,-15.97219 -28.81557,-34.10507 0.63165,-17.84869 14.16657,-31.87523 30.47321,-31.58008"
       sodipodi:ry="32.857143"
       sodipodi:rx="30"
       sodipodi:cy="203.79076"
       sodipodi:cx="292.85715"
       id="path3370"
       style="fill:url(#linearGradient3378);fill-opacity:1"
       sodipodi:type="arc" />
    <path
       transform="matrix(0.16354223,0,0,0.15513846,265.42438,174.88434)"
       sodipodi:open="true"
       sodipodi:end="11.012099"
       sodipodi:start="4.7511293"
       d="m 294.01907,170.95827 c 16.55611,0.70282 29.45728,15.97218 28.81557,34.10506 -0.64171,18.13289 -14.5833,32.26274 -31.13941,31.55992 -16.55611,-0.70283 -29.45728,-15.97219 -28.81557,-34.10507 0.63165,-17.84869 14.16657,-31.87523 30.47321,-31.58008"
       sodipodi:ry="32.857143"
       sodipodi:rx="30"
       sodipodi:cy="203.79076"
       sodipodi:cx="292.85715"
       id="path3388"
       style="fill:url(#linearGradient3390);fill-opacity:1"
       sodipodi:type="arc" />
    <path
       transform="matrix(1,0,0,0.91304422,126.98951,21.08302)"
       sodipodi:open="true"
       sodipodi:end="11.012099"
       sodipodi:start="4.7511293"
       d="m 294.01907,170.95827 c 16.55611,0.70282 29.45728,15.97218 28.81557,34.10506 -0.64171,18.13289 -14.5833,32.26274 -31.13941,31.55992 -16.55611,-0.70283 -29.45728,-15.97219 -28.81557,-34.10507 0.63165,-17.84869 14.16657,-31.87523 30.47321,-31.58008"
       sodipodi:ry="32.857143"
       sodipodi:rx="30"
       sodipodi:cy="203.79076"
       sodipodi:cx="292.85715"
       id="path3392"
       style="fill:#ffe6d5;fill-opacity:1"
       sodipodi:type="arc" />
    <path
       sodipodi:type="arc"
       style="fill:#552200;fill-opacity:1"
       id="path3394"
       sodipodi:cx="292.85715"
       sodipodi:cy="203.79076"
       sodipodi:rx="30"
       sodipodi:ry="32.857143"
       d="m 294.01907,170.95827 c 16.55611,0.70282 29.45728,15.97218 28.81557,34.10506 -0.64171,18.13289 -14.5833,32.26274 -31.13941,31.55992 -16.55611,-0.70283 -29.45728,-15.97219 -28.81557,-34.10507 0.63165,-17.84869 14.16657,-31.87523 30.47321,-31.58008"
       sodipodi:start="4.7511293"
       sodipodi:end="11.012099"
       sodipodi:open="true"
       transform="matrix(0.58333928,0,0,0.52888285,248.65443,99.519565)" />
    <path
       transform="matrix(0.27297386,0,0,0.24736899,339.19002,156.59367)"
       sodipodi:open="true"
       sodipodi:end="11.012099"
       sodipodi:start="4.7511293"
       d="m 294.01907,170.95827 c 16.55611,0.70282 29.45728,15.97218 28.81557,34.10506 -0.64171,18.13289 -14.5833,32.26274 -31.13941,31.55992 -16.55611,-0.70283 -29.45728,-15.97219 -28.81557,-34.10507 0.63165,-17.84869 14.16657,-31.87523 30.47321,-31.58008"
       sodipodi:ry="32.857143"
       sodipodi:rx="30"
       sodipodi:cy="203.79076"
       sodipodi:cx="292.85715"
       id="path3396"
       style="fill:url(#linearGradient3402);fill-opacity:1"
       sodipodi:type="arc" />
    <path
       sodipodi:type="arc"
       style="fill:url(#linearGradient3404);fill-opacity:1"
       id="path3398"
       sodipodi:cx="292.85715"
       sodipodi:cy="203.79076"
       sodipodi:rx="30"
       sodipodi:ry="32.857143"
       d="m 294.01907,170.95827 c 16.55611,0.70282 29.45728,15.97218 28.81557,34.10506 -0.64171,18.13289 -14.5833,32.26274 -31.13941,31.55992 -16.55611,-0.70283 -29.45728,-15.97219 -28.81557,-34.10507 0.63165,-17.84869 14.16657,-31.87523 30.47321,-31.58008"
       sodipodi:start="4.7511293"
       sodipodi:end="11.012099"
       sodipodi:open="true"
       transform="matrix(0.12145314,0,0,0.12439494,374.47258,174.07853)" />
    <path
       sodipodi:type="arc"
       style="fill:url(#linearGradient3406);fill-opacity:1"
       id="path3400"
       sodipodi:cx="292.85715"
       sodipodi:cy="203.79076"
       sodipodi:rx="30"
       sodipodi:ry="32.857143"
       d="m 294.01907,170.95827 c 16.55611,0.70282 29.45728,15.97218 28.81557,34.10506 -0.64171,18.13289 -14.5833,32.26274 -31.13941,31.55992 -16.55611,-0.70283 -29.45728,-15.97219 -28.81557,-34.10507 0.63165,-17.84869 14.16657,-31.87523 30.47321,-31.58008"
       sodipodi:start="4.7511293"
       sodipodi:end="11.012099"
       sodipodi:open="true"
       transform="matrix(0.16354223,0,0,0.15513846,370.98532,175.38942)" />
    <path
       style="fill:#803300;fill-opacity:1"
       d="m 217.3925,108.56455 c 4.14422,1.25957 -0.1599,-6.05488 4.95189,-12.138031 9.25422,-11.012736 4.88666,-7.113742 7.81351,-15.949451 1.36201,-4.111693 -11.19824,3.275727 -13.88648,10.752925 -2.64608,7.360008 -3.56896,15.877537 0.45053,17.280557"
       id="path3408"
       inkscape:connector-curvature="0"
       sodipodi:nodetypes="csssc" />
    <path
       sodipodi:nodetypes="csssc"
       inkscape:connector-curvature="0"
       id="path3411"
       d="m 223.95849,119.12697 c 4.14422,1.64895 -0.1599,-7.92667 4.95189,-15.89035 9.25422,-14.417176 4.88666,-9.312859 7.81351,-20.880012 1.36201,-5.382769 -11.19824,4.288375 -13.88648,14.07705 -2.64608,9.635262 -3.56896,20.785872 0.45053,22.622612"
       style="fill:#803300;fill-opacity:1" />
    <path
       style="fill:#803300;fill-opacity:1"
       d="m 231.2737,127.86431 c 2.81231,1.75207 -0.43895,-8.06907 2.60984,-16.08152 5.51942,-14.505454 2.84308,-9.38939 4.29425,-21.107809 0.6753,-5.453162 -7.23179,4.163622 -8.59976,14.076529 -1.34651,9.75754 -1.48877,21.08791 1.24887,23.02886"
       id="path3413"
       inkscape:connector-curvature="0"
       sodipodi:nodetypes="csssc" />
    <path
       sodipodi:nodetypes="csssc"
       inkscape:connector-curvature="0"
       id="path3415"
       d="m 209.00516,91.093659 c 0.62464,3.073705 4.78715,-4.264425 11.67499,-5.744346 12.4695,-2.679198 7.62462,-2.311019 15.85608,-6.853046 3.83051,-2.113631 -7.0382,-3.69525 -14.08738,0.03599 -6.93869,3.672774 -14.12531,9.061079 -13.66475,12.16746"
       style="fill:#803300;fill-opacity:1" />
    <path
       style="fill:#803300;fill-opacity:1"
       d="m 217.26137,70.028552 c 0.31172,-3.121003 5.19252,3.760313 12.19443,4.538605 12.67601,1.408994 7.81869,1.530915 16.46595,5.220324 4.024,1.716866 -6.63,4.385689 -14.0193,1.383795 -7.27348,-2.95486 -14.9665,-7.591535 -14.82131,-10.728509"
       id="path3436"
       inkscape:connector-curvature="0"
       sodipodi:nodetypes="csssc" />
    <path
       sodipodi:nodetypes="csssc"
       inkscape:connector-curvature="0"
       id="path3438"
       d="m 542.90234,113.94674 c -2.99065,2.40157 -1.05504,-7.89538 -6.23211,-14.853974 -9.37238,-12.597589 -5.2021,-8.338978 -9.2094,-19.276866 -1.86479,-5.089941 9.38271,2.18755 12.93896,11.404671 3.50047,9.072679 5.88092,19.967269 3.01563,22.532159"
       style="fill:#803300;fill-opacity:1" />
    <path
       style="fill:#803300;fill-opacity:1"
       d="m 549.61614,102.24078 c -1.66013,2.6927 -2.84416,-5.833861 -8.58958,-9.797915 -10.40134,-7.176392 -6.12112,-5.028223 -12.00252,-12.404338 -2.7369,-3.432472 7.71996,-0.904095 12.81287,5.261859 5.01308,6.069328 9.64272,13.862925 8.12037,16.647604"
       id="path3440"
       inkscape:connector-curvature="0"
       sodipodi:nodetypes="csssc" />
    <path
       sodipodi:nodetypes="csssc"
       inkscape:connector-curvature="0"
       id="path3442"
       d="m 465.49865,49.860125 c 1.22367,2.29361 -5.319,-0.634119 -10.51254,1.501252 -9.4022,3.86581 -6.1045,1.923373 -13.77626,2.659775 -3.57006,0.342682 2.55594,-5.590887 9.04213,-6.325227 6.38452,-0.72282 13.83413,-0.434358 15.18015,1.806696"
       style="fill:#803300;fill-opacity:1" />
    <path
       style="fill:#803300;fill-opacity:1"
       d="m 418.61777,46.985259 c -1.46843,2.145166 5.35647,-0.04546 10.28375,2.647978 8.92016,4.876121 5.85602,2.582886 13.4003,4.158315 3.51074,0.733123 -1.92574,-5.838011 -8.29187,-7.281039 -6.26634,-1.420399 -13.7025,-1.952753 -15.28676,0.126723"
       id="path3445"
       inkscape:connector-curvature="0"
       sodipodi:nodetypes="csssc" />
    <path
       style="fill:#803300;fill-opacity:1"
       d="m 537.65489,121.76289 c -3.90458,2.06237 -0.50867,-8.09447 -6.1632,-15.74124 -10.23676,-13.843436 -5.54803,-9.042718 -9.37323,-20.563723 -1.78005,-5.361294 11.28391,3.340062 14.7272,13.070224 3.38929,9.577669 5.22459,20.858589 1.45745,23.100899"
       id="path3447"
       inkscape:connector-curvature="0"
       sodipodi:nodetypes="csssc" />
    <path
       style="fill:url(#linearGradient3481);fill-opacity:1"
       d="m 351.02802,246.76553 c 11.29069,2.55736 21.34663,1.41045 31.31472,0 -4.66077,27.37828 -11.12542,57.99444 -6.06092,87.3782 -8.5215,4.67514 -9.04627,6.67799 -20.20304,0.50508 2.31984,-28.79466 1.59508,-57.80781 -5.05076,-87.88328 z"
       id="rect3451"
       inkscape:connector-curvature="0"
       sodipodi:nodetypes="ccccc" />
    <path
       style="fill:url(#linearGradient3479);fill-opacity:1"
       d="m 358.95627,306.37421 c 5.01726,0.27551 -0.16447,6.7659 -0.35893,13.87367 -0.19447,7.10777 -0.3788,14.66672 -5.39606,14.39123 -5.01726,-0.27549 -8.9269,-6.26081 -8.73244,-13.36859 0.19142,-6.99636 8.33373,-16.03005 13.27539,-15.91436"
       id="path3454"
       inkscape:connector-curvature="0"
       sodipodi:nodetypes="csssc" />
    <path
       sodipodi:nodetypes="csssc"
       inkscape:connector-curvature="0"
       id="path3457"
       d="m 372.64324,306.37421 c -5.01726,0.27551 0.16447,6.7659 0.35893,13.87367 0.19447,7.10777 0.3788,14.66672 5.39606,14.39123 5.01726,-0.27549 8.9269,-6.26081 8.73244,-13.36859 -0.19142,-6.99636 -8.33373,-16.03005 -13.27539,-15.91436"
       style="fill:url(#linearGradient3477);fill-opacity:1" />
    <path
       transform="matrix(1,0,0,0.95406399,2.5253814,-5.8603249)"
       style="fill:#803300;fill-opacity:1"
       d="m 526.08938,103.37749 c 7.94399,1.52873 14.13426,34.74145 13.82635,74.18268 -0.3079,39.44123 1.58891,56.41113 -6.35508,54.8824 -7.944,-1.52873 -13.6292,-4.03656 -22.41266,-60.41842 -5.96921,-38.31693 -6.33454,-39.68643 -11.13716,-54.92627"
       id="path3483"
       inkscape:connector-curvature="0"
       sodipodi:nodetypes="csssc" />
    <path
       style="fill:#c87137;fill-opacity:1"
       d="m 346.70864,399.43651 c 4.57429,-2.03117 45.53289,-7.25568 69.60626,-12.18851 4.45582,-0.55128 8.89735,-1.07863 2.93648,15.85941 -31.7318,4.92578 -53.67422,6.87358 -68.17771,7.90279 -3.97827,-7.53598 -7.79027,-12.73057 -4.36503,-11.57369 z"
       id="rect3486"
       inkscape:connector-curvature="0"
       sodipodi:nodetypes="ccccc" />
    <path
       sodipodi:nodetypes="ccccc"
       inkscape:connector-curvature="0"
       id="path3489"
       d="m 348.80079,400.74128 c 21.70531,-0.58769 41.13268,-4.95877 60.7907,-8.94677 3.64903,-0.51861 7.287,-1.02212 2.87386,9.50307 -24.51213,4.22128 -39.85597,5.97495 -58.29073,7.16105 0.29793,-2.80663 -3.65334,-3.25799 -5.37383,-7.71735 z"
       style="fill:#ff0000;fill-opacity:1" />
    <path
       style="fill:#ffb380;fill-opacity:1"
       d="m 348.87012,400.38949 c 21.60256,-1.28101 41.88531,-5.66058 61.33877,-9.72643 3.61823,-0.56835 6.86877,-2.9093 2.81225,6.10047 -23.50062,6.21382 -39.12362,8.19253 -58.48166,10.79784 -2.90881,-3.12131 -9.05707,-4.35637 -5.66936,-7.17188 z"
       id="path3491"
       inkscape:connector-curvature="0"
       sodipodi:nodetypes="ccccc" />
    <path
       style="fill:#c87137;fill-opacity:1"
       d="m 428.57671,374.82605 c 1.9493,-0.95342 5.48931,1.8865 7.90683,6.34314 2.41753,4.45664 2.79709,8.84236 0.84779,9.79578 -1.94931,0.95342 -0.0149,-2.48422 -2.43239,-6.94086 -2.37963,-4.38679 -8.26497,-8.12203 -6.39956,-9.15773"
       id="path3493"
       inkscape:connector-curvature="0"
       sodipodi:nodetypes="csssc" />
    <path
       sodipodi:nodetypes="csssc"
       inkscape:connector-curvature="0"
       id="path3496"
       d="m 439.85582,373.35355 c 1.2823,-0.72618 3.61099,1.43687 5.20129,4.83133 1.5903,3.39444 1.83998,6.73487 0.5577,7.46105 -1.28231,0.72618 -0.01,-1.89213 -1.60009,-5.28658 -1.56536,-3.34124 -5.43687,-6.18622 -4.20976,-6.97508"
       style="opacity:0.8;fill:#c87137;fill-opacity:1" />
    <path
       sodipodi:type="arc"
       style="fill:#552200;fill-opacity:1"
       id="path4269"
       sodipodi:cx="531.96429"
       sodipodi:cy="267.54074"
       sodipodi:rx="3.75"
       sodipodi:ry="6.9642859"
       d="m 532.10953,260.58168 c 2.06952,0.14897 3.68216,3.38541 3.60195,7.22879 -0.0802,3.84339 -1.82291,6.8383 -3.89243,6.68933 -2.06951,-0.14897 -3.68216,-3.38541 -3.60194,-7.22879 0.0789,-3.78315 1.77082,-6.75616 3.80915,-6.6936"
       sodipodi:start="4.7511293"
       sodipodi:end="11.012099"
       sodipodi:open="true"
       transform="matrix(0.45931827,0.33458707,-0.40165925,0.65911296,399.01218,-130.18003)" />
    <path
       transform="translate(26.071429,-7.5)"
       style="fill:#c87137;fill-opacity:1"
       d="m 514.85283,212.37664 c 3.4381,16.12682 -7.40775,6.51784 -7.72096,17.16106 -0.31322,10.64321 7.88196,16.79396 6.94385,20.31 -2.08589,7.818 -14.7351,-8.30355 -14.42189,-18.94676 0.30831,-10.4764 6.91464,-18.70938 14.87383,-18.53613"
       id="path4266"
       inkscape:connector-curvature="0"
       sodipodi:nodetypes="csssc" />
    <path
       transform="matrix(-0.22484131,0.24494225,-0.30662982,-0.33112037,738.78645,184.5785)"
       sodipodi:open="true"
       sodipodi:end="11.012099"
       sodipodi:start="4.7511293"
       d="m 532.10953,260.58168 c 2.06952,0.14897 3.68216,3.38541 3.60195,7.22879 -0.0802,3.84339 -1.82291,6.8383 -3.89243,6.68933 -2.06951,-0.14897 -3.68216,-3.38541 -3.60194,-7.22879 0.0789,-3.78315 1.77082,-6.75616 3.80915,-6.6936"
       sodipodi:ry="6.9642859"
       sodipodi:rx="3.75"
       sodipodi:cy="267.54074"
       sodipodi:cx="531.96429"
       id="path4271"
       style="fill:#552200;fill-opacity:1"
       sodipodi:type="arc" />
    <path
       style="fill:#c8b7b7;fill-opacity:1;stroke:#000000;stroke-opacity:1"
       d="M 227.85714,577.93359 C 319.65795,623.0139 398.20621,618.3141 530,575.79073 c -0.45374,41.12491 4.50549,77.91943 13.57143,111.42858 l -337.14286,0 c 8.43365,-34.27726 18.38621,-66.023 21.42857,-109.28572 z"
       id="rect4273"
       inkscape:connector-curvature="0"
       sodipodi:nodetypes="ccccc" />
    <path
       style="fill:#c8b7b7;fill-opacity:1;stroke:#000000;stroke-width:0.6744715;stroke-opacity:1"
       d="m 227.77115,578.39703 c 24.06869,7.74642 51.85225,16.16035 71.49178,23.95357 -15.77569,28.55283 -25.03915,51.52761 -29.89123,63.69093 l -53.63463,-43.95357 z"
       id="rect4276"
       inkscape:connector-curvature="0"
       sodipodi:nodetypes="ccccc" />
    <path
       style="fill:#c8b7b7;fill-opacity:1;stroke:#000000;stroke-width:0.86305612;stroke-opacity:1"
       d="m 299.31107,604.01688 c 76.46692,-6.78596 165.46146,-17.66527 231.17565,-29.82761 l 5.91662,41.94692 -214.74708,57.68476 c -4.7641,-16.83945 -14.0183,-52.96462 -22.34519,-69.80407 z"
       id="rect4279"
       inkscape:connector-curvature="0"
       sodipodi:nodetypes="ccccc" />
    <path
       style="fill:#ff0000;fill-opacity:1;stroke:#000000;stroke-width:1.04635561;stroke-opacity:1"
       d="m 297.30533,603.58562 c -0.91783,-7.27472 12.2465,26.56356 17.00235,46.92395 -1.7579,-1.55847 -4.53358,2.08439 -18.04153,16.05787 -14.2415,-26.1162 -5.35282,-7.72605 -14.85951,-29.06679 8.13141,-18.52377 8.19788,-17.92874 15.89869,-33.91503 z"
       id="rect4282"
       inkscape:connector-curvature="0"
       sodipodi:nodetypes="ccccc" />
    <path
       style="fill:#ff0000;fill-opacity:1;stroke:#000000;stroke-width:1.20767117;stroke-opacity:1"
       d="m 278.52893,686.77795 17.52527,-21.33838 15.41688,21.28308 -16.09829,1.56206 z"
       id="rect4285"
       inkscape:connector-curvature="0"
       sodipodi:nodetypes="ccccc" />
    <path
       style="fill:#37483e;fill-opacity:1;stroke:#000000;stroke-width:1.17331171;stroke-opacity:1"
       d="m 228.66281,577.64864 c 17.04864,36.21334 35.54421,74.15878 48.49015,109.32558 l -0.81576,-0.18425 -69.91872,0.67442 c 0.9215,-41.4752 9.72316,-76.86173 22.24433,-109.81575 z"
       id="rect4288"
       inkscape:connector-curvature="0"
       sodipodi:nodetypes="ccccc" />
    <path
       style="fill:#37483e;fill-opacity:1;stroke:#000000;stroke-width:1.02291167;stroke-opacity:1"
       d="m 374.29718,596.51652 159.2628,-24.28572 c 5.69693,38.95484 9.29381,77.20965 9.28571,114.26281 l -229.2628,0 z"
       id="rect4291"
       inkscape:connector-curvature="0"
       sodipodi:nodetypes="ccccc" />
    <path
       style="fill:#1a1a1a;fill-opacity:1"
       d="m 450,585.07648 12.14286,-0.71429 c -1.47487,15.47619 -1.85751,30.95238 -1.42857,46.42857 l -10.71429,0 c 1.34578,-13.21942 2.3988,-26.87798 0,-45.71428 z"
       id="rect4294"
       inkscape:connector-curvature="0"
       sodipodi:nodetypes="ccccc" />
    <path
       style="fill:#1a1a1a;fill-opacity:1"
       d="m 478.21426,630.43359 c 0.29996,4.52381 4.76548,9.04762 0,13.57143 -15.23809,-3.00713 -30.47619,-2.70381 -45.71428,0 -5.96303,-8.99608 -0.90165,-9.72385 0,-13.57143 z"
       id="rect4296"
       inkscape:connector-curvature="0"
       sodipodi:nodetypes="ccccc" />
    <path
       sodipodi:nodetypes="ccccc"
       inkscape:connector-curvature="0"
       id="path4300"
       d="m 539.60069,623.07213 c 0,0 2.24669,2.53927 -1.09376,1.21574 2.16398,10.82792 -12.87277,-7.71649 -17.55879,-26.00209 2.40119,-7.59751 4.11844,-4.53913 6.09376,-5.50144 z"
       style="fill:#1a1a1a;fill-opacity:1" />
  </g>
</svg>
